<svg width="20" height="20" viewBox="0 0 20 20" fill="none" xmlns="http://www.w3.org/2000/svg">
  <g clip-path="url(#clip0_3_230)">
    <path d="M7.78498 15.6518L6.17581 15.2201L6.83165 12.771C5.84995 12.4089 4.93758 11.8813 4.13415 11.211L2.33998 13.006L1.16081 11.8268L2.95581 10.0326C1.94254 8.81909 1.26172 7.36326 0.97998 5.80762L2.61998 5.50845C3.25248 9.01012 6.31581 11.6668 9.99998 11.6668C13.6833 11.6668 16.7475 9.01012 17.38 5.50845L19.02 5.80679C18.7386 7.36263 18.0581 8.81876 17.045 10.0326L18.8391 11.8268L17.66 13.006L15.8658 11.211C15.0624 11.8813 14.15 12.4089 13.1683 12.771L13.8241 15.221L12.215 15.6518L11.5583 13.2018C10.5269 13.3785 9.47302 13.3785 8.44165 13.2018L7.78498 15.6518Z" fill="black"/>
  </g>
  <defs>
    <clipPath id="clip0_3_230">
      <rect width="20" height="20" fill="white"/>
    </clipPath>
  </defs>
</svg>
