<?xml version="1.0" encoding="UTF-8" standalone="no"?>
<svg
   width="341"
   height="219"
   viewBox="0 0 341 219"
   fill="none"
   version="1.1"
   id="svg1268"
   sodipodi:docname="create-account-balloons.svg"
   inkscape:version="1.1.2 (0a00cf5339, 2022-02-04)"
   xmlns:inkscape="http://www.inkscape.org/namespaces/inkscape"
   xmlns:sodipodi="http://sodipodi.sourceforge.net/DTD/sodipodi-0.dtd"
   xmlns="http://www.w3.org/2000/svg"
   xmlns:svg="http://www.w3.org/2000/svg">
  <defs
     id="defs1272" />
  <sodipodi:namedview
     id="namedview1270"
     pagecolor="#505050"
     bordercolor="#eeeeee"
     borderopacity="1"
     inkscape:pageshadow="0"
     inkscape:pageopacity="0"
     inkscape:pagecheckerboard="0"
     showgrid="false"
     inkscape:zoom="1.7739726"
     inkscape:cx="74.972973"
     inkscape:cy="131.34363"
     inkscape:window-width="1920"
     inkscape:window-height="949"
     inkscape:window-x="0"
     inkscape:window-y="32"
     inkscape:window-maximized="1"
     inkscape:current-layer="svg1268" />
  <path
     d="m 307.9,57.9546 c -15.642,0 -31.476,-2.3409 -47.204,-6.9879 C 245.42,46.4533 230.21,39.7668 215.488,31.0929 192.303,17.4338 177.59,3.0367 175.393,0.828472 167.089,13.9745 154.477,24.3472 137.901,31.6607 c -13.359,5.8941 -29.309,9.8259 -47.4066,11.686 -30.797,3.1663 -57.5103,-0.8281 -57.7765,-0.869 -0.0835,-0.0128 -0.1586,-0.0581 -0.2086,-0.1262 -0.05,-0.068 -0.0709,-0.153 -0.0581,-0.2364 0.0128,-0.0835 0.0582,-0.1584 0.1263,-0.2083 0.0681,-0.05 0.1533,-0.0709 0.2368,-0.0581 0.2656,0.0409 26.9102,4.0233 57.6283,0.8637 28.3114,-2.9119 65.9744,-12.6598 84.6244,-42.562478 0.025,-0.041112 0.06,-0.0758321 0.101,-0.1015151 0.041,-0.0256831 0.088,-0.04164939 0.136,-0.04668363 0.048,-0.00503425 0.097,9.9642e-4 0.143,0.01763413 0.045,0.0166376 0.086,0.0434432 0.12,0.0783715 0.15,0.1556561 15.265,15.7333711 40.261,30.4572711 23.058,13.5821 59.482,29.1957 102.059,26.4416 0.085,-0.0054 0.168,0.0228 0.231,0.0785 0.063,0.0557 0.102,0.1343 0.108,0.2184 0.005,0.0842 -0.023,0.1671 -0.079,0.2305 -0.056,0.0634 -0.134,0.1021 -0.218,0.1076 -3.333,0.2155 -6.675,0.3231 -10.029,0.323 z"
     fill="#cccccc"
     id="path1166" />
  <path
     d="m 68.2964,58.8628 c -0.1624,-0.009 -0.318,-0.0684 -0.445,-0.17 -0.127,-0.1016 -0.219,-0.2403 -0.2631,-0.3967 L 63.4935,44.5613 c -0.0347,-0.1161 -0.0423,-0.2385 -0.0223,-0.3579 0.0199,-0.1195 0.067,-0.2328 0.1374,-0.3313 0.0705,-0.0986 0.1626,-0.1798 0.2692,-0.2374 0.1067,-0.0576 0.2251,-0.0902 0.3462,-0.0952 h 1e-4 l 8.3417,-0.3427 c 0.1269,-0.0052 0.2532,0.02 0.3683,0.0735 0.1152,0.0534 0.2159,0.1336 0.2937,0.2338 0.0779,0.1003 0.1306,0.2176 0.1538,0.3423 0.0232,0.1247 0.0162,0.2531 -0.0205,0.3746 l -4.2469,14.0775 c -0.0472,0.1651 -0.1477,0.3101 -0.2858,0.4124 -0.1381,0.1023 -0.3061,0.1563 -0.4781,0.1536 -0.018,-10e-5 -0.0361,-6e-4 -0.0539,-0.0017 z"
     fill="#e6e6e6"
     id="path1168" />
  <path
     d="m 108.45,55.8468 c -0.162,0.0173 -0.325,-0.0163 -0.467,-0.0962 -0.142,-0.0798 -0.255,-0.2019 -0.324,-0.3492 l -6.256,-12.8972 c -0.053,-0.109 -0.08,-0.2286 -0.079,-0.3497 0,-0.121 0.028,-0.2404 0.082,-0.349 0.053,-0.1086 0.131,-0.2035 0.227,-0.2776 0.096,-0.074 0.208,-0.1251 0.327,-0.1495 v 0 l 8.177,-1.6796 c 0.125,-0.0255 0.253,-0.021 0.376,0.0133 0.122,0.0342 0.234,0.0972 0.327,0.1836 0.093,0.0864 0.164,0.1937 0.207,0.313 0.043,0.1194 0.057,0.2473 0.04,0.373 l -1.921,14.5768 c -0.02,0.1705 -0.096,0.3297 -0.216,0.4529 -0.12,0.1232 -0.277,0.2035 -0.447,0.2285 -0.018,0.0028 -0.036,0.0052 -0.053,0.0069 z"
     fill="#e6e6e6"
     id="path1170" />
  <path
     d="m 152.696,40.7432 c -0.15,0.0631 -0.316,0.0778 -0.475,0.042 -0.159,-0.0358 -0.302,-0.1202 -0.411,-0.2415 l -9.707,-10.5545 c -0.082,-0.0892 -0.143,-0.1959 -0.177,-0.312 -0.035,-0.1161 -0.042,-0.2385 -0.022,-0.3579 0.02,-0.1194 0.067,-0.2327 0.138,-0.3312 0.071,-0.0984 0.163,-0.1795 0.269,-0.237 v 0 l 7.348,-3.958 c 0.112,-0.0602 0.237,-0.0928 0.364,-0.0951 0.127,-0.0024 0.252,0.0257 0.366,0.0817 0.114,0.056 0.213,0.1385 0.289,0.2404 0.075,0.1019 0.125,0.2204 0.146,0.3456 l 2.359,14.5125 c 0.03,0.1691 0.003,0.3434 -0.076,0.4957 -0.079,0.1524 -0.206,0.2745 -0.362,0.3473 -0.016,0.0079 -0.033,0.0153 -0.049,0.022 z"
     fill="#e6e6e6"
     id="path1172" />
  <path
     d="m 293.919,71.8902 c -0.16,-0.027 -0.308,-0.1034 -0.423,-0.2186 -0.115,-0.1152 -0.19,-0.2633 -0.217,-0.4236 l -2.53,-14.1062 c -0.021,-0.1192 -0.015,-0.2417 0.018,-0.3581 0.034,-0.1165 0.093,-0.2238 0.174,-0.3139 0.081,-0.0901 0.182,-0.1604 0.294,-0.2058 0.113,-0.0453 0.234,-0.0644 0.355,-0.0559 v 0 l 8.328,0.5917 c 0.126,0.009 0.249,0.0481 0.357,0.1141 0.109,0.066 0.2,0.157 0.266,0.2652 0.066,0.1083 0.105,0.2308 0.114,0.3573 0.01,0.1265 -0.012,0.2534 -0.062,0.37 l -5.798,13.5145 c -0.065,0.1588 -0.181,0.2916 -0.33,0.3778 -0.149,0.0863 -0.322,0.1212 -0.492,0.0993 -0.018,-0.0021 -0.036,-0.0047 -0.054,-0.0078 z"
     fill="#e6e6e6"
     id="path1174" />
  <path
     d="m 249.471,62.6511 c -0.151,-0.0619 -0.278,-0.1692 -0.364,-0.3069 -0.087,-0.1377 -0.128,-0.299 -0.118,-0.4612 l 0.668,-14.3151 c 0.005,-0.1209 0.038,-0.239 0.097,-0.3452 0.058,-0.1062 0.14,-0.1977 0.239,-0.2676 0.099,-0.0698 0.213,-0.1162 0.332,-0.1355 0.12,-0.0193 0.243,-0.011 0.359,0.0242 v 0 l 7.988,2.422 c 0.122,0.0369 0.233,0.1022 0.324,0.1906 0.091,0.0884 0.159,0.1972 0.2,0.3175 0.04,0.1202 0.051,0.2484 0.032,0.3737 -0.019,0.1254 -0.068,0.2443 -0.143,0.3469 l -8.656,11.8931 c -0.099,0.1403 -0.242,0.2441 -0.406,0.2952 -0.164,0.0512 -0.341,0.0468 -0.502,-0.0123 -0.017,-0.006 -0.034,-0.0125 -0.05,-0.0194 z"
     fill="#e6e6e6"
     id="path1176" />
  <path
     d="M 340.619,219 H 0.381006 C 0.279957,219 0.183046,218.947 0.111594,218.854 0.0401413,218.76 0,218.633 0,218.5 0,218.368 0.0401413,218.24 0.111594,218.147 0.183046,218.053 0.279957,218 0.381006,218 H 340.619 c 0.101,0 0.198,0.053 0.269,0.147 0.072,0.093 0.112,0.221 0.112,0.353 0,0.133 -0.04,0.26 -0.112,0.354 -0.071,0.093 -0.168,0.146 -0.269,0.146 z"
     fill="#3f3d56"
     id="path1246" />
  <path
     d="m 94.567155,87.736966 c -6.51909,-8.724091 -18.45057,-10.829583 -24.379588,-6.399112 -5.92902,4.430471 -7.29098,16.469512 -0.77188,25.193596 6.03423,8.07524 16.966758,10.27755 22.988358,7.25216 a 0.75623301,0.75623301 0 0 0 -0.004,0.28669 l 0.33949,1.67837 a 0.76580852,0.76580852 0 0 0 1.22207,0.45165 l 2.87482,-2.24593 a 0.7658242,0.7658242 0 0 0 -0.14247,-1.29508 l -1.54642,-0.73547 a 0.7580396,0.7580396 0 0 0 -0.17016,-0.0534 c 4.64146,-4.90699 5.636675,-16.040664 -0.41068,-24.133439 z"
     fill="#ccc"
     id="path2"
     style="fill:#0d6bff;fill-opacity:1;stroke-width:0.313643" />
  <path
     d="m 80.307425,84.44317 a 12.599148,12.599148 0 0 1 10.55207,13.774696 c -0.0701,0.73549 1.07909,0.73069 1.1487,0 A 13.776273,13.776273 0 0 0 80.612805,83.335497 c -0.72308,-0.12291 -1.0338,0.983843 -0.30538,1.107673 z"
     fill="#ffffff"
     id="path4"
     style="stroke-width:0.313643" />
  <path
     d="m 252.50122,107.34585 c 3.50787,-10.310338 -1.5037,-21.341091 -8.51076,-23.725085 -7.00705,-2.383994 -17.70599,3.301596 -21.21386,13.61194 -3.24697,9.543495 1.11977,19.805165 7.02041,23.060175 a 0.75621733,0.75621733 0 0 0 -0.23843,0.15922 l -1.19216,1.22921 a 0.76580225,0.76580225 0 0 0 0.31866,1.26327 l 3.47812,1.10068 a 0.76582734,0.76582734 0 0 0 0.98749,-0.84994 l -0.26805,-1.6913 a 0.75797059,0.75797059 0 0 0 -0.0522,-0.17055 c 6.67187,1.05265 16.41673,-4.42337 19.67075,-13.98762 z"
     fill="#ccc"
     id="path6"
     style="fill:#0d6bff;fill-opacity:1;stroke-width:0.313643" />
  <path
     d="m 247.15289,93.722923 a 12.599151,12.599151 0 0 1 -5.39225,16.492787 c -0.6462,0.35818 0.008,1.30319 0.64966,0.94735 a 13.776273,13.776273 0 0 0 5.8288,-17.814752 c -0.30758,-0.665835 -1.39605,-0.296151 -1.08621,0.374615 z"
     fill="#ffffff"
     id="path8"
     style="stroke-width:0.313643" />
  <path
     d="M 197.23456,44.82953 C 194.3779,33.088998 182.84913,25.78834 174.63094,27.765877 c -8.21817,1.977535 -15.1154,13.712011 -12.25874,25.452543 2.64419,10.867302 13.08359,17.836252 20.76001,17.336735 a 0.83893254,0.86364348 78.906628 0 0 -0.13398,0.291895 l -0.4076,1.864215 a 0.84960101,0.87462618 78.906628 0 0 1.07355,0.989299 l 4.02919,-1.058855 a 0.84962537,0.87465126 78.906628 0 0 0.43956,-1.386953 l -1.28398,-1.419672 a 0.84096463,0.86573542 78.906628 0 0 -0.15377,-0.128078 c 7.08741,-3.020533 13.18934,-13.986538 10.53938,-24.877476 z"
     fill="#6c63ff"
     id="path10"
     style="fill:#0d6bff;fill-opacity:1;stroke-width:0.353048" />
  <path
     d="m 183.8095,35.308546 a 13.977716,14.389432 78.906628 0 1 4.78137,18.649092 c -0.40762,0.72255 0.79711,1.213236 1.20209,0.495399 a 15.283635,15.733818 78.906628 0 0 -5.16043,-20.146493 c -0.70081,-0.437633 -1.52898,0.561111 -0.82303,1.002002 z"
     fill="#ffffff"
     id="path12"
     style="stroke-width:0.353048" />
  <circle
     cx="170.68915"
     cy="119.15788"
     r="15.604358"
     fill="#6c63ff"
     id="circle14"
     style="fill:#ff6b00;fill-opacity:1;stroke-width:0.313643" />
  <path
     d="m 169.97984,218.09947 h -4.30332 a 1.8973713,1.8973713 0 0 1 -1.89518,-1.89518 v -35.8666 a 1.8973745,1.8973745 0 0 1 1.89518,-1.89518 h 4.3033 a 1.8973745,1.8973745 0 0 1 1.89518,1.89518 v 35.8666 a 1.8973713,1.8973713 0 0 1 -1.89516,1.89518 z"
     fill="#6c63ff"
     id="path16"
     style="fill:#ff6b00;fill-opacity:1;stroke-width:0.313643" />
  <path
     d="m 183.76429,218.09947 h -4.3033 a 1.8973713,1.8973713 0 0 1 -1.89518,-1.89518 v -35.8666 a 1.8973745,1.8973745 0 0 1 1.89518,-1.89518 h 4.3033 a 1.8973745,1.8973745 0 0 1 1.89518,1.89518 v 35.8666 a 1.8973713,1.8973713 0 0 1 -1.89518,1.89518 z"
     fill="#6c63ff"
     id="path18"
     style="fill:#ff6b00;fill-opacity:1;stroke-width:0.313643" />
  <path
     d="m 159.22066,149.4897 -1.84601,3.88724 a 1.8973745,1.8973745 0 0 1 -2.52494,0.89896 l -32.39884,-15.38594 a 1.8973682,1.8973682 0 0 1 -0.89895,-2.52493 l 1.84601,-3.88724 a 1.8973745,1.8973745 0 0 1 2.52493,-0.89895 l 32.39885,15.38593 a 1.8973745,1.8973745 0 0 1 0.89895,2.52493 z"
     fill="#6c63ff"
     id="path20"
     style="fill:#ff6b00;fill-opacity:1;stroke-width:0.313643" />
  <path
     d="m 164.10169,151.57331 a 1.8801618,1.8801618 0 0 1 -0.19788,1.29541 l -2.0798,3.76714 a 1.8976599,1.8976599 0 0 1 -2.57525,0.74321 l -15.22497,-6.71168 a 1.8970326,1.8970326 0 0 1 -0.74287,-2.57503 l -3e-5,-1.4e-4 3.8152,-7.13722 a 1.8948936,1.8948936 0 0 1 2.575,-0.74302 l 13.67391,9.03893 c 0.44311,0.24469 0.58025,1.68981 0.72078,2.17615 0.014,0.0486 0.0259,0.0974 0.0359,0.14625 z"
     fill="#2f2e41"
     id="path22"
     style="fill:#000000;stroke-width:0.313643" />
  <path
     d="m 182.82083,146.96477 32.39884,-15.38593 a 1.8973682,1.8973682 0 0 1 2.52493,0.89895 l 1.84601,3.88724 a 1.8973682,1.8973682 0 0 1 -0.89895,2.52493 l -32.39885,15.38594 a 1.8973682,1.8973682 0 0 1 -2.52493,-0.89896 l -1.84601,-3.88724 a 1.8973776,1.8973776 0 0 1 0.89896,-2.52493 z"
     fill="#6c63ff"
     id="path24"
     style="fill:#ff6b00;fill-opacity:1;stroke-width:0.313643" />
  <path
     d="m 177.07676,151.42707 c 0.14051,-0.48635 0.27766,-1.93146 0.72078,-2.17615 l 13.6739,-9.03893 a 1.8948904,1.8948904 0 0 1 2.57501,0.74302 l 3.8152,7.13722 -3e-5,1.3e-4 a 1.8970326,1.8970326 0 0 1 -0.74288,2.57503 l -15.22497,6.71169 a 1.8976567,1.8976567 0 0 1 -2.57525,-0.74322 l -2.0798,-3.76714 a 1.8801618,1.8801618 0 0 1 -0.19788,-1.2954 c 0.01,-0.0488 0.0218,-0.0977 0.0359,-0.14625 z"
     fill="#2f2e41"
     id="path26"
     style="fill:#000000;stroke-width:0.313643" />
  <path
     d="m 168.6119,124.94138 -0.0162,-0.58313 c 1.08483,-0.0302 2.04124,-0.0982 2.75991,-0.62328 a 1.79253,1.79253 0 0 0 0.69432,-1.32031 1.0246703,1.0246703 0 0 0 -0.33613,-0.84394 c -0.47706,-0.4029 -1.2447,-0.27249 -1.8042,-0.0159 l -0.48248,0.22123 0.92524,-6.76153 0.57773,0.0792 -0.787,5.75159 a 2.0584362,2.0584362 0 0 1 1.94715,0.28018 1.5951453,1.5951453 0 0 1 0.54241,1.30977 2.3711943,2.3711943 0 0 1 -0.93307,1.77075 c -0.92339,0.67481 -2.1234,0.70841 -3.08765,0.73546 z"
     fill="#2f2e41"
     id="path28"
     style="fill:#000000;stroke-width:0.313643" />
  <rect
     x="173.7872"
     y="115.58963"
     width="3.1405971"
     height="0.58313054"
     fill="#2f2e41"
     id="rect30"
     style="fill:#000000;stroke-width:0.313643" />
  <rect
     x="163.87396"
     y="115.58963"
     width="3.1405971"
     height="0.58313054"
     fill="#2f2e41"
     id="rect32"
     style="fill:#000000;stroke-width:0.313643" />
  <path
     d="m 176.06856,142.05559 h 0.62913 a 1.91451,1.91451 0 1 0 0,-3.82902 h -12.25284 a 1.91451,1.91451 0 0 0 0,3.82902 h 1.15095 c -9.83335,4.47385 -16.14319,20.99994 -16.14319,31.2985 0,11.99732 8.65866,15.86728 21.37986,15.86728 12.72119,0 24.68743,-3.86996 24.68743,-15.86728 -3e-5,-10.29856 -8.8879,-26.82465 -19.45134,-31.2985 z"
     fill="#2f2e41"
     id="path34"
     style="fill:#000000;stroke-width:0.313643" />
  <path
     d="m 170.04656,110.2461 c -0.38025,-1.1554 -1.75185,-1.51004 -2.80748,-1.07417 -1.2379,0.51114 -1.93977,1.77736 -3.13533,2.37588 -2.15043,1.07655 -5.00318,0.4984 -6.64266,-1.22715 -1.79289,-1.88701 -2.1459,-4.83179 -1.24363,-7.21426 0.93312,-2.46398 3.24784,-4.24738 5.72616,-4.97169 3.29327,-0.962494 6.82657,-0.07922 9.679,1.696053 a 0.57961147,0.57961147 0 0 0 0.84373,-0.343253 c 0.78436,-2.996833 4.16812,-3.869136 6.88688,-3.547574 a 16.647878,16.647878 0 0 1 7.43721,2.968 c 4.25062,2.965484 7.24709,7.795754 7.66685,12.995914 a 18.406303,18.406303 0 0 1 -5.47308,14.53174 c -0.95826,0.92466 -2.07488,1.65185 -3.05167,2.55284 -0.88989,0.82083 -1.76707,1.90061 -1.74931,3.17828 0.0408,2.93779 3.90664,3.74807 6.19451,3.83614 a 11.696127,11.696127 0 0 0 12.04363,-9.67157 12.088224,12.088224 0 0 0 0.18878,-2.06523 c 0.003,-0.73926 -1.14529,-0.7402 -1.1487,0 a 10.833465,10.833465 0 0 1 -3.06649,7.4691 10.639252,10.639252 0 0 1 -7.63688,3.1275 c -1.82641,-0.009 -6.77468,-0.87502 -5.11626,-3.76417 0.64842,-1.12961 1.81204,-1.89877 2.81484,-2.68487 a 17.611529,17.611529 0 0 0 2.82427,-2.78793 19.57076,19.57076 0 0 0 4.18624,-14.93312 c -0.74042,-5.17995 -3.88113,-9.86027 -8.15368,-12.816059 -4.06785,-2.814183 -11.58669,-5.303069 -15.1421,-0.427304 a 5.1553712,5.1553712 0 0 0 -0.81273,1.732954 l 0.84372,-0.343251 c -2.74824,-1.710431 -6.02408,-2.597678 -9.25402,-2.102823 a 10.335928,10.335928 0 0 0 -6.94397,4.317333 8.4556971,8.4556971 0 0 0 -0.7495,7.94825 6.9828316,6.9828316 0 0 0 6.25799,4.22561 6.3927068,6.3927068 0 0 0 4.04411,-1.23774 c 0.65441,-0.49892 1.15693,-1.20523 1.86513,-1.63015 0.40559,-0.24335 1.31726,-0.41408 1.51677,0.1921 0.23004,0.69899 1.33969,0.39965 1.10767,-0.30536 z"
     fill="#2f2e41"
     id="path36"
     style="fill:#000000;stroke-width:0.313643" />
  <path
     d="m 217.42245,25.925208 a 18.073048,18.073048 0 0 1 16.4269,-0.31357 c 0.72382,0.356775 1.59441,0.70236 1.78537,1.574399 a 1.4977531,1.4977531 0 0 1 -0.77474,1.697783 c -0.79883,0.369007 -1.72766,-0.06126 -2.24983,-0.701019 -0.59232,-0.725716 -0.41853,-1.69046 0.088,-2.409435 1.23777,-1.756923 3.61947,-1.697602 5.53602,-1.659998 4.367,0.08571 8.92656,-0.214163 12.84987,-2.322887 3.62993,-1.951069 6.53323,-5.642914 6.60292,-9.880206 0.0122,-0.741328 -1.13641,-0.709061 -1.14854,0.0286 -0.0691,4.202354 -3.30223,7.69573 -6.98205,9.328509 a 21.082627,21.082627 0 0 1 -6.98314,1.60973 c -1.23162,0.09273 -2.46763,0.115576 -3.70235,0.09965 a 20.427202,20.427202 0 0 0 -3.61715,0.120606 c -1.95273,0.323337 -3.98318,1.648099 -4.16012,3.793453 -0.16505,2.001462 2.03372,3.803845 3.96979,3.14052 1.83481,-0.628618 2.30839,-3.012736 0.99922,-4.389684 -0.66969,-0.704357 -1.76857,-1.119352 -2.64913,-1.489028 a 19.223028,19.223028 0 0 0 -16.59525,0.795642 c -0.64766,0.357555 -0.0418,1.333601 0.60419,0.976977 z"
     fill="#cccccc"
     id="path38"
     style="stroke-width:0.313643" />
  <path
     d="M 102.07451,71.581112 A 18.073048,18.073048 0 0 1 87.93847,63.207715 C 87.51052,62.523566 86.95185,61.77174 87.2481,60.929631 A 1.4977531,1.4977531 0 0 1 88.8,59.893153 c 0.8735,0.106324 1.43716,0.960806 1.54477,1.779567 0.12206,0.928764 -0.53317,1.657877 -1.34211,2.002962 -1.97682,0.843231 -3.97126,-0.459929 -5.581518,-1.499961 -3.66906,-2.369811 -7.7047,-4.512975 -12.15061,-4.783049 -4.11347,-0.249854 -8.52454,1.363012 -10.81251,4.930182 -0.40029,0.624086 0.59357,1.200774 0.99188,0.579774 2.26912,-3.537747 6.85629,-4.808354 10.84478,-4.261552 a 21.082627,21.082627 0 0 1 6.78585,2.303858 c 1.09627,0.568929 2.15951,1.199604 3.20126,1.862579 a 20.427462,20.427462 0 0 0 3.139838,1.799945 c 1.83087,0.752083 4.25457,0.693332 5.53344,-1.038233 1.19309,-1.615438 0.27103,-4.30486 -1.72449,-4.759018 -1.89114,-0.430414 -3.5479,1.348193 -3.15869,3.207874 0.1991,0.951294 0.91543,1.882232 1.46991,2.659792 a 19.223015,19.223015 0 0 0 14.53278,8.051933 c 0.73891,0.03655 0.73698,-1.112246 0,-1.148703 z"
     fill="#cccccc"
     id="path40"
     style="stroke-width:0.313643" />
  <path
     d="m 264.79244,140.72339 h -1.911 v 6.045 h 1.911 z"
     fill="#f2f2f2"
     id="path3999-6" />
  <path
     d="m 295.69644,123.54339 h -1.912 v 6.045 h 1.912 z"
     fill="#f2f2f2"
     id="path4001-7" />
  <path
     d="m 287.86844,142.05939 -1.495,1.189 3.77,4.729 1.495,-1.189 z"
     fill="#f2f2f2"
     id="path4003-5" />
  <path
     d="m 278.85944,160.37639 -3.027,5.235 1.656,0.954 3.026,-5.235 z"
     fill="#f2f2f2"
     id="path4005-3" />
  <path
     d="m 270.25744,101.51939 -3.027,5.235 1.656,0.954 3.026,-5.235 z"
     fill="#f2f2f2"
     id="path4007-5" />
  <g
     id="g4564"
     transform="rotate(153.87828,73.188525,161.61883)">
    <path
       d="m 51.102239,166.23743 h -1.911 v 6.045 h 1.911 z"
       fill="#f2f2f2"
       id="path3999-62" />
    <path
       d="m 82.006239,149.05743 h -1.912 v 6.045 h 1.912 z"
       fill="#f2f2f2"
       id="path4001-9" />
    <path
       d="m 74.178239,167.57343 -1.495,1.189 3.77,4.729 1.495,-1.189 z"
       fill="#f2f2f2"
       id="path4003-1" />
    <path
       d="m 65.169239,185.89043 -3.027,5.235 1.656,0.954 3.026,-5.235 z"
       fill="#f2f2f2"
       id="path4005-2" />
    <path
       d="m 56.567239,127.03343 -3.027,5.235 1.656,0.954 3.026,-5.235 z"
       fill="#f2f2f2"
       id="path4007-7" />
  </g>
</svg>
