<svg width="10" height="11" viewBox="0 0 10 11" fill="none" xmlns="http://www.w3.org/2000/svg">
  <path d="M5 10.864L1.818 7.68201C1.18867 7.05267 0.760093 6.25084 0.586464 5.37793C0.412835 4.50502 0.501953 3.60022 0.842549 2.77796C1.18315 1.95569 1.75992 1.25289 2.49994 0.758429C3.23996 0.263965 4.10999 4.57764e-05 5 4.57764e-05C5.89002 4.57764e-05 6.76004 0.263965 7.50006 0.758429C8.24008 1.25289 8.81686 1.95569 9.15745 2.77796C9.49805 3.60022 9.58717 4.50502 9.41354 5.37793C9.23991 6.25084 8.81133 7.05267 8.182 7.68201L5 10.864ZM7.475 6.97501C7.96445 6.48551 8.29776 5.86187 8.43278 5.18294C8.5678 4.50402 8.49846 3.80031 8.23355 3.16078C7.96863 2.52126 7.52002 1.97466 6.94446 1.59009C6.3689 1.20552 5.69222 1.00026 5 1.00026C4.30778 1.00026 3.63111 1.20552 3.05554 1.59009C2.47998 1.97466 2.03138 2.52126 1.76646 3.16078C1.50154 3.80031 1.43221 4.50402 1.56723 5.18294C1.70225 5.86187 2.03555 6.48551 2.525 6.97501L5 9.45001L7.475 6.97501ZM5 5.50001C4.73479 5.50001 4.48043 5.39465 4.2929 5.20711C4.10536 5.01958 4 4.76522 4 4.50001C4 4.23479 4.10536 3.98044 4.2929 3.7929C4.48043 3.60536 4.73479 3.50001 5 3.50001C5.26522 3.50001 5.51957 3.60536 5.70711 3.7929C5.89464 3.98044 6 4.23479 6 4.50001C6 4.76522 5.89464 5.01958 5.70711 5.20711C5.51957 5.39465 5.26522 5.50001 5 5.50001Z" fill="black"/>
</svg>
