<?xml version="1.0" encoding="UTF-8" standalone="no"?>
<svg
   width="341"
   height="219"
   viewBox="0 0 341 219"
   fill="none"
   version="1.1"
   id="svg1268"
   sodipodi:docname="login-balloons.svg"
   inkscape:version="1.1.2 (0a00cf5339, 2022-02-04)"
   xmlns:inkscape="http://www.inkscape.org/namespaces/inkscape"
   xmlns:sodipodi="http://sodipodi.sourceforge.net/DTD/sodipodi-0.dtd"
   xmlns="http://www.w3.org/2000/svg"
   xmlns:svg="http://www.w3.org/2000/svg">
  <defs
     id="defs1272" />
  <sodipodi:namedview
     id="namedview1270"
     pagecolor="#505050"
     bordercolor="#eeeeee"
     borderopacity="1"
     inkscape:pageshadow="0"
     inkscape:pageopacity="0"
     inkscape:pagecheckerboard="0"
     showgrid="false"
     inkscape:zoom="1.7739726"
     inkscape:cx="74.972973"
     inkscape:cy="131.34363"
     inkscape:window-width="1920"
     inkscape:window-height="949"
     inkscape:window-x="0"
     inkscape:window-y="32"
     inkscape:window-maximized="1"
     inkscape:current-layer="svg1268" />
  <path
     d="M307.9 57.9546C292.258 57.9546 276.424 55.6137 260.696 50.9667C245.42 46.4533 230.21 39.7668 215.488 31.0929C192.303 17.4338 177.59 3.0367 175.393 0.828472C167.089 13.9745 154.477 24.3472 137.901 31.6607C124.542 37.5548 108.592 41.4866 90.4944 43.3467C59.6974 46.513 32.9841 42.5186 32.7179 42.4777C32.6344 42.4649 32.5593 42.4196 32.5093 42.3515C32.4593 42.2835 32.4384 42.1985 32.4512 42.1151C32.464 42.0316 32.5094 41.9567 32.5775 41.9068C32.6456 41.8568 32.7308 41.8359 32.8143 41.8487C33.0799 41.8896 59.7245 45.872 90.4426 42.7124C118.754 39.8005 156.417 30.0526 175.067 0.149922C175.092 0.10881 175.127 0.0740899 175.168 0.0484069C175.209 0.0227238 175.256 0.00675751 175.304 0.00172327C175.352 -0.00331098 175.401 0.00271969 175.447 0.0193574C175.492 0.035995 175.533 0.0628006 175.567 0.0977289C175.717 0.253385 190.832 15.8311 215.828 30.555C238.886 44.1371 275.31 59.7507 317.887 56.9966C317.972 56.9912 318.055 57.0194 318.118 57.0751C318.181 57.1308 318.22 57.2094 318.226 57.2935C318.231 57.3777 318.203 57.4606 318.147 57.524C318.091 57.5874 318.013 57.6261 317.929 57.6316C314.596 57.8471 311.254 57.9547 307.9 57.9546Z"
     fill="#CCCCCC"
     id="path1166" />
  <path
     d="M68.2964 58.8628C68.134 58.8538 67.9784 58.7944 67.8514 58.6928C67.7244 58.5912 67.6324 58.4525 67.5883 58.2961L63.4935 44.5613C63.4588 44.4452 63.4512 44.3228 63.4712 44.2034C63.4911 44.0839 63.5382 43.9706 63.6086 43.8721C63.6791 43.7735 63.7712 43.6923 63.8778 43.6347C63.9845 43.5771 64.1029 43.5445 64.224 43.5395H64.2241L72.5658 43.1968C72.6927 43.1916 72.819 43.2168 72.9341 43.2703C73.0493 43.3237 73.15 43.4039 73.2278 43.5041C73.3057 43.6044 73.3584 43.7217 73.3816 43.8464C73.4048 43.9711 73.3978 44.0995 73.3611 44.221L69.1142 58.2985C69.067 58.4636 68.9665 58.6086 68.8284 58.7109C68.6903 58.8132 68.5223 58.8672 68.3503 58.8645C68.3323 58.8644 68.3142 58.8639 68.2964 58.8628Z"
     fill="#E6E6E6"
     id="path1168" />
  <path
     d="M108.45 55.8468C108.288 55.8641 108.125 55.8305 107.983 55.7506C107.841 55.6708 107.728 55.5487 107.659 55.4014L101.403 42.5042C101.35 42.3952 101.323 42.2756 101.324 42.1545C101.324 42.0335 101.352 41.9141 101.406 41.8055C101.459 41.6969 101.537 41.602 101.633 41.5279C101.729 41.4539 101.841 41.4028 101.96 41.3784H101.96L110.137 39.6988C110.262 39.6733 110.39 39.6778 110.513 39.7121C110.635 39.7463 110.747 39.8093 110.84 39.8957C110.933 39.9821 111.004 40.0894 111.047 40.2087C111.09 40.3281 111.104 40.456 111.087 40.5817L109.166 55.1585C109.146 55.329 109.07 55.4882 108.95 55.6114C108.83 55.7346 108.673 55.8149 108.503 55.8399C108.485 55.8427 108.467 55.8451 108.45 55.8468Z"
     fill="#E6E6E6"
     id="path1170" />
  <path
     d="M152.696 40.7432C152.546 40.8063 152.38 40.821 152.221 40.7852C152.062 40.7494 151.919 40.665 151.81 40.5437L142.103 29.9892C142.021 29.9 141.96 29.7933 141.926 29.6772C141.891 29.5611 141.884 29.4387 141.904 29.3193C141.924 29.1999 141.971 29.0866 142.042 28.9881C142.113 28.8897 142.205 28.8086 142.311 28.7511L142.311 28.7511L149.659 24.7931C149.771 24.7329 149.896 24.7003 150.023 24.698C150.15 24.6956 150.275 24.7237 150.389 24.7797C150.503 24.8357 150.602 24.9182 150.678 25.0201C150.753 25.122 150.803 25.2405 150.824 25.3657L153.183 39.8782C153.213 40.0473 153.186 40.2216 153.107 40.3739C153.028 40.5263 152.901 40.6484 152.745 40.7212C152.729 40.7291 152.712 40.7365 152.696 40.7432Z"
     fill="#E6E6E6"
     id="path1172" />
  <path
     d="M293.919 71.8902C293.759 71.8632 293.611 71.7868 293.496 71.6716C293.381 71.5564 293.306 71.4083 293.279 71.248L290.749 57.1418C290.728 57.0226 290.734 56.9001 290.767 56.7837C290.801 56.6672 290.86 56.5599 290.941 56.4698C291.022 56.3797 291.123 56.3094 291.235 56.264C291.348 56.2187 291.469 56.1996 291.59 56.2081H291.59L299.918 56.7998C300.044 56.8088 300.167 56.8479 300.275 56.9139C300.384 56.9799 300.475 57.0709 300.541 57.1791C300.607 57.2874 300.646 57.4099 300.655 57.5364C300.665 57.6629 300.643 57.7898 300.593 57.9064L294.795 71.4209C294.73 71.5797 294.614 71.7125 294.465 71.7987C294.316 71.885 294.143 71.9199 293.973 71.898C293.955 71.8959 293.937 71.8933 293.919 71.8902Z"
     fill="#E6E6E6"
     id="path1174" />
  <path
     d="M249.471 62.6511C249.32 62.5892 249.193 62.4819 249.107 62.3442C249.02 62.2065 248.979 62.0452 248.989 61.883L249.657 47.5679C249.662 47.447 249.695 47.3289 249.754 47.2227C249.812 47.1165 249.894 47.025 249.993 46.9551C250.092 46.8853 250.206 46.8389 250.325 46.8196C250.445 46.8003 250.568 46.8086 250.684 46.8438L250.684 46.8438L258.672 49.2658C258.794 49.3027 258.905 49.368 258.996 49.4564C259.087 49.5448 259.155 49.6536 259.196 49.7739C259.236 49.8941 259.247 50.0223 259.228 50.1476C259.209 50.273 259.16 50.3919 259.085 50.4945L250.429 62.3876C250.33 62.5279 250.187 62.6317 250.023 62.6828C249.859 62.734 249.682 62.7296 249.521 62.6705C249.504 62.6645 249.487 62.658 249.471 62.6511Z"
     fill="#E6E6E6"
     id="path1176" />
  <path
     d="M222.725 70.5848H217.951C217.736 70.5848 217.523 70.5364 217.329 70.4432C217.135 70.3501 216.965 70.2145 216.831 70.0466C216.696 69.8787 216.602 69.6828 216.554 69.4734C216.505 69.264 216.505 69.0464 216.553 68.8368L217.437 64.9406C206.092 63.0988 197.558 50.7239 197.558 36.0659C197.558 20.0144 207.777 6.95544 220.338 6.95544C232.899 6.95544 243.117 20.0144 243.117 36.0659C243.117 50.7239 234.583 63.0988 223.239 64.9406L224.123 68.8368C224.171 69.0464 224.17 69.264 224.122 69.4734C224.074 69.6828 223.979 69.8787 223.845 70.0466C223.711 70.2145 223.54 70.3501 223.346 70.4432C223.152 70.5364 222.94 70.5848 222.725 70.5848Z"
     fill="#0D6BFF"
     id="path1178" />
  <path
     d="M224.639 66.1307H216.993C216.697 66.1307 216.413 66.0134 216.204 65.8046C215.995 65.5957 215.878 65.3125 215.878 65.0172C215.878 64.7219 215.995 64.4386 216.204 64.2298C216.413 64.021 216.697 63.9037 216.993 63.9037H224.639C224.935 63.9037 225.218 64.021 225.427 64.2298C225.636 64.4386 225.754 64.7219 225.754 65.0172C225.754 65.3125 225.636 65.5957 225.427 65.8046C225.218 66.0134 224.935 66.1307 224.639 66.1307Z"
     fill="black"
     id="path1180" />
  <path
     d="M216.669 64.7426C215.499 64.4508 214.277 64.4305 213.098 64.6835C211.919 64.9364 210.814 65.4557 209.867 66.2016C208.935 66.9657 208.195 67.9362 207.705 69.0361C207.214 70.136 206.988 71.3349 207.043 72.5376C207.276 77.7357 212.517 80.5296 216.17 83.3253C220.486 86.6289 224.539 90.4406 227.464 95.0556C230.36 99.6257 232.177 105.041 231.756 110.496C231.392 115.213 229.251 119.89 225.58 122.944C225.117 123.326 224.631 123.679 224.125 124.001C223.609 124.333 224.088 125.159 224.607 124.826C228.63 122.243 231.291 117.939 232.299 113.314C233.421 108.169 232.421 102.813 230.218 98.0897C227.928 93.183 224.327 89.0115 220.28 85.46C218.272 83.6983 216.14 82.0993 213.981 80.5305C212.082 79.1511 210.092 77.6656 208.912 75.5886C208.329 74.5703 208.016 73.4202 208.004 72.2474C207.991 71.0746 208.279 69.918 208.839 68.8874C209.425 67.8506 210.274 66.9868 211.301 66.3836C212.329 65.7803 213.497 65.4591 214.689 65.4524C215.271 65.4469 215.851 65.5177 216.415 65.6629C217.011 65.8151 217.265 64.8948 216.669 64.7426H216.669Z"
     fill="black"
     id="path1182" />
  <path
     d="M205.842 44.1786C205.297 44.1779 204.775 43.9635 204.388 43.5815C204 43.1995 203.779 42.6807 203.771 42.137C202.066 37.171 202.066 31.7792 203.771 26.8132C203.778 26.2669 204.001 25.7454 204.391 25.3627C204.782 24.98 205.308 24.7672 205.855 24.7706C206.402 24.7741 206.926 24.9937 207.311 25.3813C207.697 25.769 207.913 26.2932 207.913 26.8396L207.903 26.8944C206.092 31.8221 206.093 36.9238 207.904 42.0578L207.913 42.1106C207.912 42.6589 207.694 43.1845 207.305 43.5722C206.917 43.9599 206.391 44.178 205.842 44.1786Z"
     fill="white"
     id="path1184" />
  <path
     d="M43.429 119.789C43.233 119.7 43.0597 119.568 42.922 119.403C42.7844 119.238 42.686 119.044 42.6343 118.835L41.663 114.959C30.7066 118.427 17.4995 111.228 10.8768 98.1466C3.62465 83.8217 6.84416 67.5635 18.0538 61.9044C29.2634 56.2453 44.2831 63.2956 51.5353 77.6205C58.158 90.7019 56.1331 105.591 46.8409 112.345L49.3903 115.424C49.5274 115.59 49.6255 115.784 49.6771 115.993C49.7288 116.201 49.7328 116.419 49.6888 116.629C49.6448 116.839 49.5539 117.037 49.423 117.208C49.292 117.378 49.1243 117.517 48.9323 117.614L44.6718 119.765C44.4799 119.862 44.2685 119.915 44.0532 119.919C43.838 119.924 43.6246 119.879 43.429 119.789Z"
     fill="#0D6BFF"
     id="path1186" />
  <path
     d="M39.4531 116.161C39.32 115.897 39.2971 115.592 39.3893 115.311C39.4815 115.031 39.6814 114.798 39.9451 114.665L46.7689 111.22C47.0328 111.087 47.3387 111.064 47.6193 111.157C47.9 111.249 48.1326 111.448 48.2659 111.712C48.3992 111.975 48.4224 112.281 48.3304 112.561C48.2384 112.841 48.0386 113.074 47.7751 113.207L40.9513 116.652C40.6873 116.785 40.3813 116.808 40.1004 116.716C39.8196 116.624 39.5867 116.424 39.4531 116.161Z"
     fill="black"
     id="path1188" />
  <path
     d="M47.4369 111.823C48.3492 111.035 49.4301 110.467 50.5966 110.161C51.7632 109.856 52.9843 109.821 54.1662 110.06C55.343 110.322 56.4422 110.855 57.3767 111.616C58.3112 112.376 59.0551 113.344 59.5494 114.442C61.6898 119.186 58.2752 124.041 56.2782 128.182C53.9184 133.075 52.0242 138.302 51.4989 143.739C50.9786 149.122 51.8042 154.774 54.6441 159.452C57.1004 163.498 61.1242 166.707 65.7803 167.778C66.3659 167.91 66.9591 168.007 67.5566 168.067C68.1665 168.13 68.1127 169.083 67.4984 169.019C62.7416 168.527 58.4219 165.885 55.433 162.212C52.1076 158.125 50.5792 152.895 50.4121 147.687C50.2385 142.277 51.5678 136.931 53.5747 131.938C54.5702 129.462 55.7505 127.074 56.9689 124.701C58.0402 122.615 59.1453 120.392 59.2601 118.007C59.32 116.836 59.0793 115.669 58.5607 114.616C58.0421 113.564 57.2629 112.661 56.2969 111.994C55.3062 111.333 54.158 110.944 52.9686 110.869C51.7793 110.793 50.591 111.033 49.5245 111.564C49.0026 111.821 48.5168 112.146 48.0795 112.53C47.6161 112.934 46.9733 112.227 47.4369 111.823L47.4369 111.823Z"
     fill="black"
     id="path1190" />
  <path
     d="M45.0259 87.6801L45.0101 87.6289C44.3067 82.2312 42.002 77.6781 38.1597 74.0962L38.1263 74.0517C37.8792 73.5642 37.8353 72.9989 38.0042 72.4792C38.1731 71.9595 38.5411 71.5277 39.0278 71.2781C39.5145 71.0285 40.0803 70.9814 40.6017 71.147C41.1231 71.3127 41.5576 71.6776 41.8104 72.1622C45.5758 75.8259 48.0118 80.6376 48.7339 85.8377C48.9749 86.3283 49.0116 86.8942 48.8361 87.4117C48.6606 87.9293 48.287 88.3564 47.7971 88.5998C47.3073 88.8433 46.7408 88.8832 46.2215 88.7108C45.7023 88.5385 45.2724 88.1679 45.0259 87.6801V87.6801Z"
     fill="white"
     id="path1192" />
  <path
     d="M251.954 146.457L217.12 128.522C216.595 128.251 216.199 127.783 216.019 127.22C215.839 126.658 215.89 126.047 216.16 125.522L218.315 121.349C218.586 120.824 219.055 120.429 219.618 120.249C220.182 120.069 220.793 120.12 221.319 120.39L256.153 138.324C256.678 138.595 257.075 139.063 257.255 139.626C257.435 140.188 257.384 140.799 257.113 141.324L254.959 145.498C254.825 145.758 254.641 145.989 254.417 146.178C254.194 146.367 253.934 146.509 253.655 146.597C253.434 146.668 253.204 146.704 252.972 146.705C252.618 146.704 252.269 146.619 251.954 146.457Z"
     fill="#FF6B00"
     id="path1194" />
  <path
     d="M241.334 129.68C241.609 129.573 241.903 129.521 242.198 129.529C242.493 129.537 242.784 129.603 243.053 129.724L254.468 136.027C255.718 136.717 256.654 137.859 257.084 139.218C257.514 140.577 257.405 142.049 256.779 143.329C256.181 144.554 255.155 145.516 253.894 146.035C252.633 146.553 251.225 146.592 249.937 146.143L237.557 141.822C237.289 141.703 237.047 141.534 236.844 141.322C236.642 141.11 236.483 140.861 236.378 140.588C236.272 140.315 236.221 140.024 236.228 139.731C236.235 139.439 236.3 139.15 236.418 138.883L240.099 130.856C240.163 130.711 240.243 130.572 240.336 130.444C240.588 130.098 240.935 129.833 241.334 129.68Z"
     fill="black"
     id="path1196" />
  <path
     d="M267.6 127.754C277.017 127.754 284.651 120.131 284.651 110.727C284.651 101.323 277.017 93.7 267.6 93.7C258.183 93.7 250.549 101.323 250.549 110.727C250.549 120.131 258.183 127.754 267.6 127.754Z"
     fill="#FF6B00"
     id="path1198" />
  <path
     d="M265.508 216.621V177.484C265.509 176.894 265.744 176.328 266.162 175.91C266.58 175.493 267.147 175.258 267.738 175.257H272.44C273.032 175.258 273.598 175.493 274.017 175.91C274.435 176.328 274.67 176.894 274.67 177.484V216.621C274.67 217.211 274.435 217.777 274.017 218.195C273.598 218.612 273.032 218.847 272.44 218.848H267.738C267.147 218.847 266.58 218.612 266.162 218.195C265.744 217.777 265.509 217.211 265.508 216.621Z"
     fill="#FF6B00"
     id="path1200" />
  <path
     d="M255.313 216.621V177.484C255.314 176.894 255.549 176.328 255.967 175.91C256.385 175.493 256.952 175.258 257.543 175.257H262.245C262.837 175.258 263.403 175.493 263.821 175.91C264.24 176.328 264.475 176.894 264.475 177.484V216.621C264.475 217.211 264.24 217.777 263.821 218.195C263.403 218.612 262.837 218.847 262.245 218.848H257.543C256.952 218.847 256.385 218.612 255.967 218.195C255.549 217.777 255.314 217.211 255.313 216.621Z"
     fill="#FF6B00"
     id="path1202" />
  <path
     d="M267.958 117.038L267.976 116.401C266.791 116.368 265.746 116.294 264.96 115.721C264.738 115.55 264.555 115.332 264.424 115.084C264.293 114.835 264.217 114.561 264.202 114.281C264.188 114.109 264.214 113.937 264.278 113.777C264.341 113.618 264.441 113.475 264.569 113.36C265.09 112.92 265.929 113.062 266.54 113.342L267.068 113.584L266.057 106.206L265.425 106.292L266.285 112.568C265.455 112.324 264.685 112.429 264.158 112.874C263.955 113.05 263.796 113.271 263.694 113.519C263.591 113.767 263.547 114.035 263.565 114.303C263.584 114.68 263.684 115.048 263.861 115.382C264.037 115.716 264.284 116.007 264.585 116.235C265.593 116.972 266.905 117.008 267.958 117.038Z"
     fill="black"
     id="path1204" />
  <path
     d="M262.303 106.833H258.872V107.47H262.303V106.833Z"
     fill="black"
     id="path1206" />
  <path
     d="M273.135 106.833H269.704V107.47H273.135V106.833Z"
     fill="black"
     id="path1208" />
  <path
     d="M283.917 183.96L278.019 145.27C277.931 144.686 278.078 144.091 278.429 143.615C278.779 143.14 279.304 142.822 279.889 142.733L284.537 142.026C285.122 141.938 285.718 142.085 286.194 142.435C286.67 142.785 286.988 143.309 287.078 143.893L292.975 182.584C293.063 183.167 292.916 183.762 292.566 184.238C292.215 184.713 291.69 185.031 291.106 185.12L286.457 185.827C286.167 185.871 285.872 185.858 285.588 185.788C285.303 185.718 285.035 185.593 284.799 185.42C284.563 185.246 284.364 185.028 284.212 184.778C284.061 184.527 283.961 184.25 283.917 183.96Z"
     fill="#FF6B00"
     id="path1210" />
  <path
     d="M279.359 159.127C279.111 158.967 278.897 158.76 278.73 158.517C278.562 158.274 278.445 158 278.386 157.712L276.787 144.784C276.611 143.369 276.986 141.942 277.835 140.796C278.683 139.65 279.94 138.873 281.346 138.626L281.374 138.783L281.346 138.626C282.689 138.39 284.072 138.654 285.234 139.369C286.395 140.083 287.253 141.198 287.646 142.502L291.418 155.045C291.479 155.331 291.484 155.627 291.431 155.915C291.379 156.203 291.27 156.477 291.111 156.723C290.952 156.969 290.746 157.181 290.504 157.347C290.263 157.513 289.992 157.631 289.705 157.692L281.038 159.433C280.882 159.467 280.724 159.484 280.565 159.484C280.137 159.484 279.718 159.36 279.359 159.127Z"
     fill="black"
     id="path1212" />
  <path
     d="M279.817 187.092H234.25C233.788 187.092 233.334 186.974 232.93 186.749C232.527 186.524 232.188 186.2 231.945 185.807C231.703 185.414 231.565 184.966 231.545 184.505C231.525 184.044 231.623 183.585 231.831 183.173L253.862 139.424C255.392 136.385 257.905 133.949 260.994 132.513C264.082 131.076 267.566 130.721 270.881 131.507C274.196 132.292 277.149 134.172 279.262 136.841C281.375 139.51 282.525 142.813 282.525 146.216V184.388C282.524 185.105 282.238 185.792 281.731 186.299C281.223 186.806 280.535 187.092 279.817 187.092Z"
     fill="black"
     id="path1214" />
  <path
     d="M268.204 96.6794C264.714 97.4576 261.77 99.7294 258.26 100.436C256.661 100.758 254.9 100.744 253.431 99.9584C252.343 99.3685 251.511 98.399 251.094 97.2353C250.682 96.045 250.575 94.7702 250.785 93.5282C250.995 92.2862 251.514 91.1168 252.294 90.1274C254.264 87.7192 257.405 86.6095 260.419 86.2967C266.45 85.6708 272.645 87.6554 277.554 91.1126C282.623 94.6821 286.511 100.042 287.815 106.142C288.512 109.403 288.444 112.872 287.253 116.012C286.108 119.017 283.854 121.469 280.955 122.866C280.263 123.2 279.541 123.468 278.799 123.668C278.681 123.705 278.582 123.786 278.522 123.895C278.463 124.004 278.448 124.131 278.481 124.251C278.514 124.37 278.592 124.472 278.699 124.535C278.806 124.598 278.933 124.617 279.053 124.588C282.314 123.699 285.126 121.631 286.944 118.786C288.811 115.803 289.438 112.152 289.15 108.681C288.594 101.969 284.897 95.799 279.73 91.5753C274.765 87.5176 268.343 85.0487 261.886 85.2449C258.648 85.3432 255.286 86.1641 252.768 88.2951C251.683 89.2115 250.843 90.3828 250.324 91.7037C249.804 93.0247 249.621 94.4539 249.792 95.8628C249.937 97.1809 250.461 98.4289 251.301 99.4559C252.328 100.615 253.751 101.349 255.292 101.514C259.11 102.011 262.421 99.8495 265.795 98.4603C266.656 98.0978 267.548 97.8099 268.458 97.5997C269.058 97.4659 268.804 96.5456 268.204 96.6794V96.6794Z"
     fill="black"
     id="path1216" />
  <path
     d="M277.794 89.9341C276.424 84.8096 280.001 79.4761 284.862 77.8758C287.651 77.0085 290.644 77.0418 293.413 77.9711C296.113 78.8833 298.537 80.4639 300.46 82.5653C304.721 87.092 306.608 93.2016 307.492 99.2253C308.404 105.445 307.889 112.257 311.076 117.908C312.397 120.252 314.359 122.303 316.893 123.312C319.257 124.254 322.089 124.258 324.354 123.035C324.899 122.737 325.403 122.369 325.853 121.941C326.301 121.519 325.624 120.845 325.177 121.266C323.28 123.053 320.454 123.391 318.016 122.689C315.357 121.924 313.311 119.884 311.962 117.534C310.403 114.817 309.753 111.711 309.399 108.63C309.013 105.266 308.864 101.883 308.347 98.5332C307.416 92.4906 305.404 86.425 301.136 81.8904C299.183 79.7727 296.749 78.1554 294.039 77.1752C291.249 76.1776 288.225 76.0251 285.349 76.737C282.734 77.4134 280.429 78.9612 278.815 81.1243C277.247 83.1773 276.45 85.7144 276.562 88.294C276.603 88.9339 276.707 89.5683 276.873 90.1878C276.91 90.3059 276.991 90.4051 277.1 90.4644C277.209 90.5236 277.337 90.5384 277.456 90.5055C277.576 90.4725 277.678 90.3946 277.741 90.288C277.804 90.1814 277.823 90.0545 277.794 89.9341L277.794 89.9341Z"
     fill="black"
     id="path1218" />
  <path
     d="M136.841 148.659L97.2195 146.068C96.5946 146.028 95.9839 145.865 95.4223 145.589C94.8606 145.312 94.3589 144.928 93.9459 144.458C93.5329 143.988 93.2167 143.442 93.0153 142.85C92.8139 142.258 92.7313 141.632 92.7722 141.008C92.8131 140.384 92.9767 139.774 93.2537 139.214C93.5307 138.653 93.9156 138.152 94.3864 137.74C94.8573 137.328 95.4048 137.012 95.9978 136.812C96.5908 136.611 97.2176 136.529 97.8423 136.57L137.464 139.161C138.054 139.2 138.606 139.471 138.996 139.915C139.386 140.36 139.584 140.941 139.545 141.531L139.214 146.581C139.177 147.145 138.927 147.674 138.514 148.061C138.101 148.448 137.556 148.663 136.99 148.664C136.94 148.664 136.891 148.663 136.841 148.659Z"
     fill="#FF6B00"
     id="path1220" />
  <path
     d="M129.093 149.314L96.5112 148.098C96.2183 148.087 95.9304 148.018 95.664 147.896C95.3975 147.774 95.1578 147.601 94.9584 147.386C94.759 147.172 94.6039 146.92 94.5019 146.646C94.4 146.371 94.3531 146.08 94.364 145.787L94.6464 138.244C94.6685 137.653 94.9247 137.096 95.3586 136.694C95.7925 136.292 96.3686 136.078 96.9602 136.1L129.542 137.316C129.835 137.327 130.123 137.395 130.389 137.517C130.656 137.639 130.895 137.813 131.095 138.027C131.294 138.242 131.449 138.493 131.551 138.768C131.653 139.042 131.7 139.334 131.689 139.626L131.407 147.17C131.385 147.745 131.14 148.29 130.724 148.69C130.309 149.09 129.754 149.314 129.177 149.315C129.149 149.315 129.121 149.315 129.093 149.314Z"
     fill="black"
     id="path1222" />
  <path
     d="M88.7647 216.619V174.438C88.7654 173.847 89.0007 173.281 89.4192 172.863C89.8376 172.445 90.4049 172.21 90.9967 172.209H96.0649C96.6566 172.21 97.2239 172.445 97.6423 172.863C98.0608 173.281 98.2961 173.847 98.2968 174.438V216.619C98.2961 217.21 98.0608 217.776 97.6424 218.194C97.2239 218.612 96.6566 218.847 96.0649 218.848H90.9966C90.4049 218.847 89.8376 218.612 89.4192 218.194C89.0008 217.776 88.7654 217.21 88.7647 216.619Z"
     fill="black"
     id="path1224" />
  <path
     d="M110.427 195.801L88.5314 159.729C88.2252 159.223 88.1324 158.617 88.2734 158.043C88.4143 157.469 88.7774 156.974 89.2831 156.667L93.6172 154.044C94.1236 153.738 94.7308 153.646 95.3055 153.786C95.8802 153.927 96.3755 154.29 96.6828 154.795L118.578 190.867C118.884 191.372 118.977 191.979 118.836 192.552C118.695 193.126 118.332 193.621 117.826 193.928L113.492 196.551C112.986 196.857 112.379 196.95 111.804 196.809C111.229 196.668 110.734 196.306 110.427 195.801Z"
     fill="black"
     id="path1226" />
  <path
     d="M98.6941 128.189C108.366 128.189 116.206 120.359 116.206 110.701C116.206 101.043 108.366 93.2135 98.6941 93.2135C89.0224 93.2135 81.1819 101.043 81.1819 110.701C81.1819 120.359 89.0224 128.189 98.6941 128.189Z"
     fill="#FF6B00"
     id="path1228" />
  <path
     d="M108.173 116.672C108.737 116.487 109.254 116.184 109.69 115.783C109.979 115.497 110.202 115.151 110.343 114.769C110.484 114.388 110.54 113.98 110.506 113.575C110.488 113.286 110.403 113.006 110.258 112.755C110.113 112.505 109.912 112.291 109.671 112.131C109.045 111.73 108.207 111.729 107.355 112.104L107.387 105.277L106.7 105.274L106.662 113.3L107.191 112.967C107.805 112.583 108.681 112.312 109.3 112.708C109.453 112.813 109.58 112.952 109.671 113.114C109.761 113.275 109.813 113.456 109.823 113.641C109.846 113.943 109.804 114.246 109.699 114.53C109.594 114.814 109.429 115.072 109.216 115.287C108.457 116.01 107.351 116.236 106.089 116.439L106.198 117.116C106.869 117.027 107.53 116.879 108.173 116.672Z"
     fill="black"
     id="path1230" />
  <path
     d="M114.466 104.932L110.799 105.416L110.889 106.096L114.556 105.612L114.466 104.932Z"
     fill="black"
     id="path1232" />
  <path
     d="M102.892 106.458L99.2248 106.942L99.3147 107.622L102.982 107.138L102.892 106.458Z"
     fill="black"
     id="path1234" />
  <path
     d="M81.1526 182.841V148.373C81.1574 144.193 82.8223 140.185 85.7822 137.23C88.7421 134.274 92.7552 132.611 96.9411 132.607H107.421C108.191 132.606 108.931 132.91 109.477 133.452C110.024 133.994 110.333 134.73 110.338 135.499L116.521 182.841C116.52 183.613 116.212 184.354 115.665 184.901C115.118 185.447 114.376 185.754 113.602 185.755H84.0714C83.2975 185.754 82.5557 185.447 82.0085 184.901C81.4613 184.354 81.1535 183.613 81.1526 182.841Z"
     fill="black"
     id="path1236" />
  <path
     d="M59.2266 166.36L89.2726 140.438C89.7461 140.029 90.2957 139.717 90.89 139.52C91.4843 139.323 92.1115 139.245 92.736 139.291C93.3605 139.336 93.9699 139.504 94.5294 139.784C95.0889 140.065 95.5876 140.453 95.997 140.926C96.4063 141.399 96.7183 141.948 96.915 142.542C97.1118 143.135 97.1895 143.762 97.1437 144.385C97.098 145.009 96.9296 145.617 96.6482 146.176C96.3669 146.734 95.9781 147.232 95.5041 147.64L65.4582 173.562C65.2365 173.754 64.9791 173.899 64.7009 173.992C64.4226 174.084 64.129 174.12 63.8367 174.099C63.5443 174.077 63.2591 173.999 62.9972 173.867C62.7353 173.736 62.5018 173.554 62.3102 173.333L58.9968 169.503C58.6099 169.056 58.4167 168.473 58.4598 167.884C58.5029 167.294 58.7787 166.746 59.2266 166.36Z"
     fill="#FF6B00"
     id="path1238" />
  <path
     d="M65.8582 157.805L90.5302 136.52C90.752 136.328 91.0093 136.182 91.2876 136.09C91.5658 135.998 91.8595 135.962 92.1518 135.983C92.4441 136.005 92.7294 136.083 92.9913 136.214C93.2532 136.346 93.4866 136.528 93.6782 136.749L99.3375 143.29C99.5291 143.512 99.6752 143.769 99.7674 144.047C99.8596 144.324 99.896 144.618 99.8747 144.91C99.8533 145.202 99.7746 145.486 99.643 145.748C99.5114 146.009 99.3295 146.243 99.1077 146.434L74.4358 167.719C73.9876 168.105 73.4045 168.298 72.8143 168.255C72.2241 168.212 71.6752 167.937 71.2878 167.49L65.6284 160.949C65.2414 160.501 65.0482 159.919 65.0913 159.329C65.1344 158.74 65.4102 158.192 65.8582 157.805Z"
     fill="black"
     id="path1240" />
  <path
     d="M98.3666 100.329C100.708 98.3947 103.837 100.224 106.484 99.9647C109.017 99.7162 111.056 97.4904 111.611 95.0951C112.26 92.3007 110.855 89.4621 108.738 87.672C106.421 85.7113 103.309 85.1021 100.343 85.4004C96.9443 85.7423 93.813 87.262 90.9938 89.1185C88.2737 90.8534 85.7637 92.8968 83.514 95.2078C81.4981 97.3479 79.7759 99.9118 79.186 102.832C78.6498 105.486 78.9644 108.444 80.4979 110.729C81.3119 111.901 82.4146 112.844 83.6996 113.467C85.0388 114.156 86.4717 114.657 87.7671 115.431C89.7257 116.602 91.6055 118.988 90.9388 121.421C90.7956 121.953 90.5238 122.441 90.1472 122.843C89.6948 123.326 88.9079 122.662 89.3615 122.178C90.1583 121.328 90.1495 120.173 89.7533 119.133C89.2809 117.96 88.4236 116.982 87.3218 116.359C85.9658 115.55 84.4615 115.038 83.0701 114.299C81.7376 113.622 80.5886 112.634 79.7209 111.418C78.0837 109.052 77.6384 106.006 78.0733 103.203C78.5438 100.171 80.1607 97.4378 82.1658 95.1597C84.3478 92.6806 87.0099 90.5975 89.7244 88.7323C92.6371 86.7309 95.8449 85.053 99.3699 84.491C102.426 84.0038 105.72 84.402 108.351 86.1097C110.808 87.7037 112.663 90.4009 112.796 93.3778C112.838 94.732 112.519 96.073 111.87 97.2627C111.221 98.4525 110.266 99.4481 109.104 100.147C107.912 100.829 106.536 101.12 105.169 100.979C103.708 100.858 102.252 100.382 100.777 100.479C100.11 100.506 99.4703 100.751 98.9547 101.174C98.4432 101.597 97.8594 100.748 98.3666 100.329L98.3666 100.329Z"
     fill="black"
     id="path1242" />
  <path
     d="M118.631 193.038L105.493 213.379C105.171 213.875 104.666 214.224 104.088 214.348C103.509 214.473 102.905 214.363 102.407 214.044L98.1481 211.301C97.6507 210.98 97.3012 210.475 97.1763 209.898C97.0515 209.32 97.1615 208.716 97.4823 208.219L110.62 187.879C110.942 187.383 111.447 187.034 112.025 186.91C112.604 186.785 113.208 186.894 113.706 187.214L117.965 189.957C118.212 190.115 118.425 190.321 118.591 190.562C118.758 190.802 118.876 191.074 118.937 191.36C118.945 191.399 118.952 191.437 118.959 191.476C119.048 192.019 118.931 192.577 118.631 193.038Z"
     fill="black"
     id="path1244" />
  <path
     d="M340.619 219H0.381006C0.279957 219 0.183046 218.947 0.111594 218.854C0.0401413 218.76 0 218.633 0 218.5C0 218.368 0.0401413 218.24 0.111594 218.147C0.183046 218.053 0.279957 218 0.381006 218H340.619C340.72 218 340.817 218.053 340.888 218.147C340.96 218.24 341 218.368 341 218.5C341 218.633 340.96 218.76 340.888 218.854C340.817 218.947 340.72 219 340.619 219Z"
     fill="#3F3D56"
     id="path1246" />
  <path
     d="M135.751 93.9685H133.839V100.013H135.751V93.9685Z"
     fill="#F2F2F2"
     id="path1248" />
  <path
     d="M166.655 76.7886H164.743V82.8334H166.655V76.7886Z"
     fill="#F2F2F2"
     id="path1250" />
  <path
     d="M158.827 95.3044L157.332 96.4932L161.101 101.223L162.597 100.034L158.827 95.3044Z"
     fill="#F2F2F2"
     id="path1252" />
  <path
     d="M149.818 113.621L146.791 118.856L148.446 119.811L151.473 114.576L149.818 113.621Z"
     fill="#F2F2F2"
     id="path1254" />
  <path
     d="M141.216 54.7642L138.189 59.9991L139.844 60.9536L142.871 55.7186L141.216 54.7642Z"
     fill="#F2F2F2"
     id="path1256" />
  <path
     d="M190.549 157.916H188.638V163.961H190.549V157.916Z"
     fill="#F2F2F2"
     id="path1258" />
  <path
     d="M221.453 140.736H219.541V146.781H221.453V140.736Z"
     fill="#F2F2F2"
     id="path1260" />
  <path
     d="M213.625 159.252L212.13 160.441L215.9 165.17L217.395 163.981L213.625 159.252Z"
     fill="#F2F2F2"
     id="path1262" />
  <path
     d="M204.616 177.569L201.589 182.804L203.245 183.758L206.271 178.523L204.616 177.569Z"
     fill="#F2F2F2"
     id="path1264" />
  <path
     d="M196.014 118.712L192.987 123.947L194.643 124.901L197.669 119.666L196.014 118.712Z"
     fill="#F2F2F2"
     id="path1266" />
</svg>
