<svg width="10" height="13" viewBox="0 0 8 11" fill="none" xmlns="http://www.w3.org/2000/svg">
  <path d="M0 11C0 9.93914 0.421427 8.92172 1.17157 8.17157C1.92172 7.42143 2.93913 7 4 7C5.06087 7 6.07828 7.42143 6.82843 8.17157C7.57857 8.92172 8 9.93914 8 11H7C7 10.2044 6.68393 9.44129 6.12132 8.87868C5.55871 8.31607 4.79565 8 4 8C3.20435 8 2.44129 8.31607 1.87868 8.87868C1.31607 9.44129 1 10.2044 1 11H0ZM4 6.5C2.3425 6.5 1 5.1575 1 3.5C1 1.8425 2.3425 0.5 4 0.5C5.6575 0.5 7 1.8425 7 3.5C7 5.1575 5.6575 6.5 4 6.5ZM4 5.5C5.105 5.5 6 4.605 6 3.5C6 2.395 5.105 1.5 4 1.5C2.895 1.5 2 2.395 2 3.5C2 4.605 2.895 5.5 4 5.5Z" fill="black"/>
</svg>
